<svg width="783" height="274" viewBox="0 0 783 274" fill="none" xmlns="http://www.w3.org/2000/svg">
<path d="M75.6251 190.863C73.2212 190.866 70.899 189.992 69.0929 188.406L8.59296 135.468C7.52889 134.536 6.6762 133.388 6.092 132.1C5.50779 130.812 5.20557 129.414 5.20557 128C5.20557 126.586 5.50779 125.188 6.092 123.9C6.6762 122.612 7.52889 121.464 8.59296 120.532L69.0929 67.5946C71.0742 65.861 73.663 64.9854 76.2899 65.1604C78.9167 65.3355 81.3664 66.5469 83.1001 68.5281C84.8338 70.5094 85.7094 73.0982 85.5343 75.7251C85.3593 78.3519 84.1479 80.8016 82.1666 82.5353L30.1981 128L82.1619 173.465C83.6828 174.795 84.7617 176.557 85.2547 178.516C85.7476 180.475 85.631 182.538 84.9205 184.429C84.21 186.32 82.9394 187.949 81.2785 189.099C79.6175 190.249 77.6452 190.864 75.6251 190.863V190.863Z" fill="#225bc5"/>
<path d="M166.375 190.863C164.354 190.865 162.382 190.25 160.72 189.101C159.058 187.951 157.787 186.322 157.076 184.431C156.365 182.54 156.248 180.476 156.74 178.517C157.233 176.557 158.312 174.795 159.833 173.465L211.802 128L159.838 82.5353C157.857 80.8016 156.646 78.3519 156.47 75.7251C156.295 73.0982 157.171 70.5094 158.905 68.5281C160.638 66.5469 163.088 65.3355 165.715 65.1604C168.342 64.9854 170.931 65.861 172.912 67.5946L233.412 120.532C234.476 121.464 235.329 122.612 235.913 123.9C236.497 125.188 236.799 126.586 236.799 128C236.799 129.414 236.497 130.812 235.913 132.1C235.329 133.388 234.476 134.536 233.412 135.468L172.912 188.406C171.105 189.994 168.781 190.868 166.375 190.863V190.863Z" fill="#225bc5"/>
<path d="M98.3125 213.551C96.7668 213.55 95.2425 213.189 93.8611 212.495C92.4797 211.802 91.2793 210.795 90.3557 209.556C89.4321 208.316 88.8107 206.878 88.5411 205.356C88.2715 203.834 88.361 202.27 88.8027 200.789L134.178 49.539C134.519 48.2555 135.115 47.0537 135.93 46.0047C136.745 44.9557 137.762 44.0809 138.921 43.4322C140.08 42.7834 141.357 42.3738 142.677 42.2277C143.998 42.0816 145.334 42.202 146.606 42.5816C147.879 42.9613 149.063 43.5925 150.087 44.438C151.112 45.2834 151.956 46.3258 152.57 47.5035C153.184 48.6812 153.556 49.9702 153.663 51.2941C153.77 52.618 153.61 53.9499 153.193 55.2109L107.818 206.461C107.207 208.508 105.953 210.304 104.24 211.581C102.528 212.859 100.449 213.549 98.3125 213.551V213.551Z" fill="#225bc5"/>
<rect y="249" width="574" height="12" rx="6" fill="#225bc5"/>
<path d="M314.129 75.752V141.128C314.129 141.992 314.561 142.52 315.425 142.712C317.345 143.096 319.649 143.288 322.337 143.288C332.033 143.288 339.185 140.456 343.793 134.792C348.497 129.128 350.849 119.864 350.849 107C350.849 95.48 348.497 87.032 343.793 81.656C339.089 76.28 331.937 73.592 322.337 73.592C319.649 73.592 317.345 73.784 315.425 74.168C314.561 74.36 314.129 74.888 314.129 75.752ZM298.289 161.288C295.985 161.096 294.065 160.136 292.529 158.408C290.993 156.584 290.225 154.472 290.225 152.072V64.808C290.225 62.408 290.993 60.344 292.529 58.616C294.065 56.792 295.985 55.784 298.289 55.592C305.777 54.824 313.169 54.44 320.465 54.44C337.649 54.44 350.897 59 360.209 68.12C369.521 77.24 374.177 90.2 374.177 107C374.177 125.24 369.521 139.064 360.209 148.472C350.897 157.784 337.649 162.44 320.465 162.44C313.169 162.44 305.777 162.056 298.289 161.288ZM420.319 100.376C415.999 100.376 412.735 101.528 410.527 103.832C408.319 106.04 406.927 109.88 406.351 115.352C406.351 116.12 406.687 116.504 407.359 116.504H431.695C432.559 116.504 432.991 116.072 432.991 115.208C432.607 105.32 428.383 100.376 420.319 100.376ZM423.919 162.44C410.863 162.44 400.783 159.128 393.679 152.504C386.671 145.88 383.167 136.232 383.167 123.56C383.167 110.984 386.287 101.384 392.527 94.76C398.863 88.04 407.983 84.68 419.887 84.68C442.735 84.68 454.351 97.16 454.735 122.12C454.735 124.424 453.823 126.392 451.999 128.024C450.271 129.56 448.255 130.328 445.951 130.328H407.503C406.543 130.328 406.159 130.76 406.351 131.624C407.119 136.904 409.135 140.696 412.399 143C415.759 145.208 420.751 146.312 427.375 146.312C431.695 146.312 436.351 145.688 441.343 144.44C443.359 143.96 445.135 144.344 446.671 145.592C448.303 146.84 449.119 148.472 449.119 150.488V150.776C449.119 153.176 448.351 155.384 446.815 157.4C445.375 159.32 443.503 160.472 441.199 160.856C435.631 161.912 429.871 162.44 423.919 162.44ZM485.848 159.848L461.512 93.752C460.744 91.928 460.936 90.2 462.088 88.568C463.24 86.936 464.824 86.12 466.84 86.12H475.912C478.216 86.12 480.328 86.888 482.248 88.424C484.168 89.864 485.416 91.736 485.992 94.04L496.936 138.824C496.936 138.92 496.984 138.968 497.08 138.968C497.176 138.968 497.224 138.92 497.224 138.824L510.328 93.896C510.904 91.592 512.152 89.72 514.072 88.28C516.088 86.84 518.344 86.12 520.84 86.12H528.76C530.68 86.12 532.216 86.936 533.368 88.568C534.52 90.2 534.76 91.928 534.088 93.752L500.104 185.048C499.24 187.352 497.8 189.176 495.784 190.52C493.768 191.96 491.56 192.68 489.16 192.68H481.24C479.224 192.68 477.688 191.864 476.632 190.232C475.576 188.696 475.432 187.016 476.2 185.192L485.848 162.152C485.944 161.768 485.992 161.384 485.992 161C485.992 160.616 485.944 160.232 485.848 159.848ZM569.679 132.2C559.311 130.28 551.871 127.304 547.359 123.272C542.943 119.24 540.735 113.912 540.735 107.288C540.735 100.184 543.375 94.664 548.655 90.728C554.031 86.696 562.095 84.68 572.847 84.68C579.183 84.68 585.663 85.208 592.287 86.264C594.591 86.648 596.463 87.752 597.903 89.576C599.439 91.4 600.207 93.512 600.207 95.912V96.632C600.207 98.648 599.391 100.28 597.759 101.528C596.223 102.776 594.447 103.208 592.431 102.824C586.191 101.576 580.431 100.952 575.151 100.952C571.215 100.952 568.431 101.432 566.799 102.392C565.263 103.352 564.495 104.792 564.495 106.712C564.495 110.36 567.375 112.76 573.135 113.912C584.079 115.736 591.711 118.616 596.031 122.552C600.447 126.488 602.655 132.2 602.655 139.688C602.655 146.888 599.967 152.504 594.591 156.536C589.215 160.472 581.391 162.44 571.119 162.44C563.631 162.44 556.527 161.72 549.807 160.28C547.503 159.8 545.583 158.6 544.047 156.68C542.607 154.664 541.887 152.408 541.887 149.912V148.76C541.887 146.744 542.703 145.208 544.335 144.152C545.967 143 547.791 142.664 549.807 143.144C556.047 144.776 562.191 145.592 568.239 145.592C575.343 145.592 578.895 143.528 578.895 139.4C578.895 137.48 578.223 135.992 576.879 134.936C575.631 133.88 573.231 132.968 569.679 132.2ZM662.879 106.28C660.575 102.728 657.023 100.952 652.223 100.952C647.423 100.952 643.823 102.728 641.423 106.28C639.119 109.832 637.967 115.592 637.967 123.56C637.967 131.528 639.119 137.288 641.423 140.84C643.823 144.392 647.423 146.168 652.223 146.168C657.023 146.168 660.575 144.392 662.879 140.84C665.279 137.288 666.479 131.528 666.479 123.56C666.479 115.592 665.279 109.832 662.879 106.28ZM680.015 152.216C673.391 159.032 664.127 162.44 652.223 162.44C640.319 162.44 631.055 159.032 624.431 152.216C617.807 145.4 614.495 135.848 614.495 123.56C614.495 111.272 617.807 101.72 624.431 94.904C631.055 88.088 640.319 84.68 652.223 84.68C664.127 84.68 673.391 88.088 680.015 94.904C686.639 101.72 689.951 111.272 689.951 123.56C689.951 135.848 686.639 145.4 680.015 152.216ZM711.974 161C709.766 161 707.846 160.184 706.214 158.552C704.678 156.92 703.91 155 703.91 152.792V94.328C703.91 92.12 704.678 90.2 706.214 88.568C707.846 86.936 709.766 86.12 711.974 86.12H717.878C720.182 86.12 722.102 86.936 723.638 88.568C725.27 90.104 726.134 92.024 726.23 94.328L726.374 95.48C726.374 95.576 726.422 95.624 726.518 95.624L726.806 95.336C733.046 88.232 740.534 84.68 749.27 84.68C758.006 84.68 764.294 87.176 768.134 92.168C771.974 97.064 773.894 105.464 773.894 117.368V152.792C773.894 155 773.078 156.92 771.446 158.552C769.91 160.184 768.038 161 765.83 161H759.494C757.286 161 755.366 160.184 753.734 158.552C752.102 156.92 751.286 155 751.286 152.792V118.088C751.286 112.328 750.518 108.392 748.982 106.28C747.446 104.072 744.662 102.968 740.63 102.968C737.27 102.968 734.15 104.36 731.27 107.144C728.486 109.832 727.094 112.76 727.094 115.928V152.792C727.094 155 726.278 156.92 724.646 158.552C723.11 160.184 721.238 161 719.03 161H711.974Z" fill="black"/>
<path d="M612.672 261C611.936 261 611.296 260.728 610.752 260.184C610.208 259.64 609.936 259 609.936 258.264V228.696C609.936 227.96 610.208 227.32 610.752 226.776C611.296 226.232 611.936 225.96 612.672 225.96H628.896C629.504 225.96 630.016 226.168 630.432 226.584C630.848 227 631.056 227.512 631.056 228.12C631.056 228.728 630.848 229.24 630.432 229.656C630.016 230.072 629.504 230.28 628.896 230.28H615.648C615.36 230.28 615.216 230.408 615.216 230.664V239.832C615.216 240.12 615.36 240.264 615.648 240.264H628.032C628.608 240.264 629.088 240.472 629.472 240.888C629.888 241.272 630.096 241.752 630.096 242.328C630.096 242.904 629.888 243.4 629.472 243.816C629.088 244.2 628.608 244.392 628.032 244.392H615.648C615.36 244.392 615.216 244.536 615.216 244.824V256.248C615.216 256.536 615.36 256.68 615.648 256.68H628.896C629.504 256.68 630.016 256.888 630.432 257.304C630.848 257.72 631.056 258.232 631.056 258.84C631.056 259.448 630.848 259.96 630.432 260.376C630.016 260.792 629.504 261 628.896 261H612.672ZM645.647 250.44C642.383 249.64 640.079 248.632 638.735 247.416C637.423 246.168 636.767 244.616 636.767 242.76C636.767 240.52 637.567 238.76 639.167 237.48C640.799 236.2 643.199 235.56 646.367 235.56C648.415 235.56 650.479 235.784 652.559 236.232C653.135 236.36 653.599 236.68 653.951 237.192C654.335 237.672 654.527 238.216 654.527 238.824C654.527 239.336 654.319 239.736 653.903 240.024C653.487 240.312 653.039 240.376 652.559 240.216C650.543 239.672 648.639 239.4 646.847 239.4C643.487 239.4 641.807 240.36 641.807 242.28C641.807 243.24 642.127 244.024 642.767 244.632C643.407 245.24 644.527 245.736 646.127 246.12C649.807 246.984 652.287 248.024 653.567 249.24C654.847 250.424 655.487 252.184 655.487 254.52C655.487 256.696 654.639 258.408 652.943 259.656C651.279 260.872 648.847 261.48 645.647 261.48C643.567 261.48 641.487 261.208 639.407 260.664C638.831 260.504 638.367 260.184 638.015 259.704C637.663 259.192 637.487 258.632 637.487 258.024C637.487 257.544 637.679 257.16 638.063 256.872C638.479 256.584 638.911 256.52 639.359 256.68C641.343 257.32 643.279 257.64 645.167 257.64C648.687 257.64 650.447 256.6 650.447 254.52C650.447 253.528 650.095 252.728 649.391 252.12C648.687 251.48 647.439 250.92 645.647 250.44ZM661.457 240.84C660.913 240.84 660.449 240.648 660.065 240.264C659.713 239.88 659.537 239.432 659.537 238.92C659.537 238.408 659.713 237.96 660.065 237.576C660.449 237.192 660.913 237 661.457 237H664.145C664.433 237 664.577 236.856 664.577 236.568V230.376C664.577 229.672 664.817 229.08 665.297 228.6C665.777 228.12 666.369 227.88 667.073 227.88C667.777 227.88 668.369 228.12 668.849 228.6C669.361 229.08 669.617 229.672 669.617 230.376V236.568C669.617 236.856 669.761 237 670.049 237H676.337C676.881 237 677.329 237.192 677.681 237.576C678.065 237.96 678.257 238.408 678.257 238.92C678.257 239.432 678.065 239.88 677.681 240.264C677.329 240.648 676.881 240.84 676.337 240.84H670.049C669.761 240.84 669.617 240.984 669.617 241.272V252.36C669.617 254.536 669.873 255.96 670.385 256.632C670.897 257.304 671.921 257.64 673.457 257.64C674.193 257.64 674.897 257.592 675.569 257.496C676.081 257.432 676.529 257.544 676.913 257.832C677.329 258.12 677.537 258.504 677.537 258.984C677.537 259.56 677.345 260.072 676.961 260.52C676.577 260.968 676.097 261.224 675.521 261.288C674.177 261.416 673.169 261.48 672.497 261.48C669.553 261.48 667.489 260.856 666.305 259.608C665.153 258.36 664.577 256.104 664.577 252.84V241.272C664.577 240.984 664.433 240.84 664.145 240.84H661.457ZM689.671 260.232C689.159 260.744 688.535 261 687.799 261C687.063 261 686.439 260.744 685.927 260.232C685.415 259.72 685.159 259.096 685.159 258.36V238.536C685.159 237.832 685.399 237.24 685.879 236.76C686.359 236.28 686.951 236.04 687.655 236.04C688.359 236.04 688.951 236.28 689.431 236.76C689.943 237.24 690.199 237.832 690.199 238.536V240.792C690.199 240.824 690.215 240.84 690.247 240.84C690.311 240.84 690.343 240.824 690.343 240.792C691.303 239.48 692.583 238.408 694.183 237.576C695.783 236.712 697.527 236.216 699.415 236.088C699.991 236.056 700.471 236.232 700.855 236.616C701.271 237 701.479 237.48 701.479 238.056C701.479 238.632 701.271 239.128 700.855 239.544C700.471 239.928 699.991 240.136 699.415 240.168C696.343 240.296 694.071 241.096 692.599 242.568C691.159 244.008 690.439 246.152 690.439 249V258.36C690.439 259.096 690.183 259.72 689.671 260.232ZM717.732 248.424C715.108 248.424 713.124 248.872 711.78 249.768C710.468 250.632 709.812 251.816 709.812 253.32C709.812 254.504 710.164 255.48 710.868 256.248C711.572 257.016 712.42 257.4 713.412 257.4C715.524 257.4 717.204 256.744 718.452 255.432C719.732 254.088 720.372 252.264 720.372 249.96V248.808C720.372 248.552 720.228 248.424 719.94 248.424H717.732ZM712.212 261.48C710.036 261.48 708.244 260.776 706.836 259.368C705.46 257.96 704.772 256.104 704.772 253.8C704.772 250.984 705.844 248.808 707.988 247.272C710.132 245.704 713.38 244.92 717.732 244.92H719.94C720.228 244.92 720.372 244.776 720.372 244.488V243.96C720.372 242.264 719.972 241.08 719.172 240.408C718.372 239.736 716.932 239.4 714.852 239.4C712.996 239.4 710.788 239.784 708.228 240.552C707.748 240.712 707.284 240.648 706.836 240.36C706.42 240.04 706.212 239.624 706.212 239.112C706.212 238.472 706.404 237.896 706.788 237.384C707.172 236.872 707.668 236.552 708.276 236.424C710.58 235.848 712.772 235.56 714.852 235.56C718.884 235.56 721.652 236.28 723.156 237.72C724.66 239.16 725.412 241.8 725.412 245.64V258.648C725.412 259.288 725.172 259.848 724.692 260.328C724.244 260.776 723.7 261 723.06 261C722.42 261 721.86 260.776 721.38 260.328C720.932 259.848 720.692 259.288 720.66 258.648L720.612 257.448C720.612 257.416 720.596 257.4 720.564 257.4C720.5 257.4 720.468 257.416 720.468 257.448C718.612 260.136 715.86 261.48 712.212 261.48ZM741.921 239.4C737.761 239.4 735.681 242.44 735.681 248.52C735.681 251.592 736.225 253.88 737.313 255.384C738.433 256.888 739.969 257.64 741.921 257.64C743.617 257.64 745.073 257.08 746.289 255.96C747.537 254.84 748.161 253.56 748.161 252.12V244.92C748.161 243.48 747.537 242.2 746.289 241.08C745.073 239.96 743.617 239.4 741.921 239.4ZM740.721 261.48C737.809 261.48 735.393 260.312 733.473 257.976C731.585 255.64 730.641 252.488 730.641 248.52C730.641 244.424 731.553 241.24 733.377 238.968C735.233 236.696 737.681 235.56 740.721 235.56C743.569 235.56 746.001 236.584 748.017 238.632C748.049 238.664 748.081 238.68 748.113 238.68C748.145 238.68 748.161 238.664 748.161 238.632V227.496C748.161 226.792 748.401 226.2 748.881 225.72C749.393 225.24 750.001 225 750.705 225C751.409 225 752.001 225.24 752.481 225.72C752.961 226.2 753.201 226.792 753.201 227.496V258.648C753.201 259.288 752.961 259.848 752.481 260.328C752.033 260.776 751.489 261 750.849 261C750.209 261 749.649 260.776 749.169 260.328C748.721 259.848 748.481 259.288 748.449 258.648L748.401 257.928C748.401 257.896 748.385 257.88 748.353 257.88C748.321 257.88 748.289 257.896 748.257 257.928C747.073 259.24 745.905 260.168 744.753 260.712C743.601 261.224 742.257 261.48 740.721 261.48ZM772.107 248.424C769.483 248.424 767.499 248.872 766.155 249.768C764.843 250.632 764.187 251.816 764.187 253.32C764.187 254.504 764.539 255.48 765.243 256.248C765.947 257.016 766.795 257.4 767.787 257.4C769.899 257.4 771.579 256.744 772.827 255.432C774.107 254.088 774.747 252.264 774.747 249.96V248.808C774.747 248.552 774.603 248.424 774.315 248.424H772.107ZM766.587 261.48C764.411 261.48 762.619 260.776 761.211 259.368C759.835 257.96 759.147 256.104 759.147 253.8C759.147 250.984 760.219 248.808 762.363 247.272C764.507 245.704 767.755 244.92 772.107 244.92H774.315C774.603 244.92 774.747 244.776 774.747 244.488V243.96C774.747 242.264 774.347 241.08 773.547 240.408C772.747 239.736 771.307 239.4 769.227 239.4C767.371 239.4 765.163 239.784 762.603 240.552C762.123 240.712 761.659 240.648 761.211 240.36C760.795 240.04 760.587 239.624 760.587 239.112C760.587 238.472 760.779 237.896 761.163 237.384C761.547 236.872 762.043 236.552 762.651 236.424C764.955 235.848 767.147 235.56 769.227 235.56C773.259 235.56 776.027 236.28 777.531 237.72C779.035 239.16 779.787 241.8 779.787 245.64V258.648C779.787 259.288 779.547 259.848 779.067 260.328C778.619 260.776 778.075 261 777.435 261C776.795 261 776.235 260.776 775.755 260.328C775.307 259.848 775.067 259.288 775.035 258.648L774.987 257.448C774.987 257.416 774.971 257.4 774.939 257.4C774.875 257.4 774.843 257.416 774.843 257.448C772.987 260.136 770.235 261.48 766.587 261.48Z" fill="black"/>
</svg>
